<svg width="808" height="808" viewBox="0 0 808 808" fill="none" xmlns="http://www.w3.org/2000/svg">
<path d="M808 404C808 627.123 627.123 808 404 808C180.877 808 0 627.123 0 404C0 180.877 180.877 0 404 0C627.123 0 808 180.877 808 404Z" fill="#00CCFF"/>
<path d="M230.5 558.55C208.117 558.55 187.292 554.867 168.025 547.5C149.042 539.85 132.467 529.225 118.3 515.625C104.417 501.742 93.5083 485.733 85.575 467.6C77.925 449.183 74.1 429.067 74.1 407.25C74.1 385.433 77.925 365.458 85.575 347.325C93.5083 328.908 104.417 312.9 118.3 299.3C132.467 285.417 149.042 274.792 168.025 267.425C187.008 259.775 207.833 255.95 230.5 255.95C252.883 255.95 273.567 259.775 292.55 267.425C311.533 274.792 327.967 285.275 341.85 298.875C356.017 312.475 366.925 328.483 374.575 346.9C382.508 365.317 386.475 385.433 386.475 407.25C386.475 429.067 382.508 449.183 374.575 467.6C366.925 486.017 356.017 502.025 341.85 515.625C327.967 529.225 311.533 539.85 292.55 547.5C273.567 554.867 252.883 558.55 230.5 558.55ZM230.5 530.5C248.35 530.5 264.783 527.525 279.8 521.575C295.1 515.342 308.275 506.7 319.325 495.65C330.658 484.317 339.442 471.283 345.675 456.55C351.908 441.533 355.025 425.1 355.025 407.25C355.025 389.4 351.908 373.108 345.675 358.375C339.442 343.358 330.658 330.325 319.325 319.275C308.275 307.942 295.1 299.3 279.8 293.35C264.783 287.117 248.35 284 230.5 284C212.65 284 196.075 287.117 180.775 293.35C165.475 299.3 152.158 307.942 140.825 319.275C129.775 330.325 120.992 343.358 114.475 358.375C108.242 373.108 105.125 389.4 105.125 407.25C105.125 424.817 108.242 441.108 114.475 456.125C120.992 471.142 129.775 484.317 140.825 495.65C152.158 506.7 165.475 515.342 180.775 521.575C196.075 527.525 212.65 530.5 230.5 530.5Z" fill="#363636"/>
<path d="M674.569 258.5H705.594V556H674.569V258.5ZM488.419 556H456.969V258.5H488.419V556ZM677.544 418.725H485.019V391.1H677.544V418.725Z" fill="#363636"/>
</svg>
